# xmcd CD database file
#
# Track frame offsets:
#	150
#	16389
#	28257
#	49080
#	70187
#	94174
#	111573
#	134199
#	152442
#	171719
#	186376
#	205687
#
# Disc length: 2945 seconds
#
# Revision: 5
# Processed by: cddbd v1.5.2PL0 Copyright (c) Steve Scherf et al.
# Submitted via: CdAid (MTCDDB.DLL V2003.12.21)
#
DISCID=b50b7f0c
DTITLE=ERIKO ISHIHARA - A THOUSAND WINDS
DYEAR=2004
DGENRE=Jazz
TTITLE0=LUCKY TO BE ME
TTITLE1='S WONDERFUL
TTITLE2=THE TOUCH OF YOUR LIPS
TTITLE3=DON'T BE ON THE OUTSIDE
TTITLE4=ISN'T IT A PITY ?
TTITLE5=ESTATE
TTITLE6=THE LITTLE GIRL
TTITLE7=SONG OF THE WIND
TTITLE8=SOME OF MY BEST FRIENDS ARE THE BLUES
TTITLE9=YOU MAKE ME FEEL SO YOUNG
TTITLE10=GONE WITH THE WIND
TTITLE11=A THOUSAND WINDS
EXTD=YEAR: 2004 ID3G:   8
EXTT0=
EXTT1=
EXTT2=
EXTT3=
EXTT4=
EXTT5=
EXTT6=
EXTT7=
EXTT8=
EXTT9=
EXTT10=
EXTT11=
PLAYORDER=
